<svg width="145" height="145" viewBox="0 0 145 145" fill="none" xmlns="http://www.w3.org/2000/svg">
<path d="M72.5 0C109.809 0 140.586 27.7646 145 63.6129H109.615C105.586 46.9761 90.4976 34.6129 72.5 34.6129C54.5024 34.6129 39.4139 46.9761 35.3849 63.6129H0C4.41443 27.7646 35.1905 0 72.5 0Z" fill="url(#paint0_linear)"/>
<path d="M109.615 81.3871H145C140.586 117.235 109.809 145 72.5 145C35.1905 145 4.41443 117.235 0 81.3871H35.3849C39.4139 98.0239 54.5024 110.387 72.5 110.387C90.4976 110.387 105.586 98.0239 109.615 81.3871Z" fill="url(#paint1_linear)"/>
<path d="M72.5 96.3548C85.7734 96.3548 96.5336 85.6747 96.5336 72.5C96.5336 59.3253 85.7734 48.6452 72.5 48.6452C59.2266 48.6452 48.4664 59.3253 48.4664 72.5C48.4664 85.6747 59.2266 96.3548 72.5 96.3548Z" fill="url(#paint2_linear)"/>
<defs>
<linearGradient id="paint0_linear" x1="72.5" y1="0" x2="72.5" y2="145" gradientUnits="userSpaceOnUse">
<stop stop-color="white" stop-opacity="0.3"/>
<stop offset="1" stop-color="white" stop-opacity="0"/>
</linearGradient>
<linearGradient id="paint1_linear" x1="72.5" y1="0" x2="72.5" y2="145" gradientUnits="userSpaceOnUse">
<stop stop-color="white" stop-opacity="0.3"/>
<stop offset="1" stop-color="white" stop-opacity="0"/>
</linearGradient>
<linearGradient id="paint2_linear" x1="72.5" y1="0" x2="72.5" y2="145" gradientUnits="userSpaceOnUse">
<stop stop-color="white" stop-opacity="0.3"/>
<stop offset="1" stop-color="white" stop-opacity="0"/>
</linearGradient>
</defs>
</svg>
